HIERARCHY
ROOT pelvis
{
	OFFSET 0.000000 0.000000 0.000000
	CHANNELS 6 Xposition Yposition Zposition Zrotation Xrotation Yrotation
	JOINT lfemur
	{
		OFFSET 11.446000 0.000000 0.000000
		CHANNELS 3 Zrotation Xrotation Yrotation
		JOINT ltibia
		{
			OFFSET 0.000000 -42.030400 0.000000
			CHANNELS 3 Zrotation Xrotation Yrotation
			JOINT lfoot
			{
				OFFSET 0.000000 -39.930200 0.000000
				CHANNELS 3 Zrotation Xrotation Yrotation
				JOINT ltoes
				{
					OFFSET 0.000000 0.000000 11.775800
					CHANNELS 3 Zrotation Xrotation Yrotation
					End Site
					{
					    OFFSET 0.000000 0.000000 5.000000
					}
				}
			}
		}
	}
	JOINT rfemur
	{
		OFFSET -11.446000 0.000000 0.000000
		CHANNELS 3 Zrotation Xrotation Yrotation
		JOINT rtibia
		{
			OFFSET 0.000000 -42.030400 0.000000
			CHANNELS 3 Zrotation Xrotation Yrotation
			JOINT rfoot
			{
				OFFSET 0.000000 -39.930200 0.000000
				CHANNELS 3 Zrotation Xrotation Yrotation
				JOINT rtoes
				{
					OFFSET 0.000000 0.000000 11.775800
					CHANNELS 3 Zrotation Xrotation Yrotation
					End Site
					{
					    OFFSET 0.000000 0.000000 5.000000
					}
				}
			}
		}
	}
	JOINT thorax
	{
		OFFSET 0.000000 11.255600 -5.000000
		CHANNELS 3 Zrotation Xrotation Yrotation
		JOINT head
		{
			OFFSET 0.000000 43.799300 0.000000
			CHANNELS 3 Zrotation Xrotation Yrotation
			End Site
			{
			    OFFSET 0.000000 5.000000 0.000000
			}
		}
		JOINT lclavicle
		{
			OFFSET 0.000000 39.863000 0.000000
			CHANNELS 3 Zrotation Xrotation Yrotation
			JOINT lhumerus
			{
				OFFSET 17.380600 4.958300 0.000000
				CHANNELS 3 Zrotation Xrotation Yrotation
				JOINT lradius
				{
					OFFSET 0.000000 -27.561300 0.000000
					CHANNELS 3 Zrotation Xrotation Yrotation
					JOINT lhand
					{
						OFFSET 0.000000 -26.933000 0.000000
						CHANNELS 3 Zrotation Xrotation Yrotation
						End Site
						{
						    OFFSET 0.000000 -5.000000 0.000000
						}
					}
				}
			}
		}
		JOINT rclavicle
		{
			OFFSET 0.000000 39.863000 0.000000
			CHANNELS 3 Zrotation Xrotation Yrotation
			JOINT rhumerus
			{
				OFFSET -17.380600 4.958300 0.000000
				CHANNELS 3 Zrotation Xrotation Yrotation
				JOINT rradius
				{
					OFFSET 0.000000 -27.561300 0.000000
					CHANNELS 3 Zrotation Xrotation Yrotation
					JOINT rhand
					{
						OFFSET 0.000000 -26.933000 0.000000
						CHANNELS 3 Zrotation Xrotation Yrotation
						End Site
						{
						    OFFSET 0.000000 -5.000000 0.000000
						}
					}
				}
			}
		}
	}
}
MOTION
Frames:	20
Frame Time:	0.0333333
-55.2346 86.7743 -15.425 -1.02387 0.120196 -6.60891 -3.54677 -18.9654 -0.876986 0.0806373 21.7088 -0.184796 1.66774 8.6841 -3.07449 -5.36701e-016 -5 -1.59635e-015 3.06967 0.609742 -1.57825 -0.498607 48.6809 0.611256 -5.19242 7.14935 2.86229 -7.95139e-016 -5 -0 1.52284 5.20636 3.56594 1.67888 -2.42642 -7.02533 2.48481e-016 -7.95139e-016 -7.95139e-016 6.63027 -3.67857 -12.9885 11.021 -17.3235 4.1921 -0.25765 -2.01683 -14.5076 2.48481e-016 -7.95139e-016 -7.95139e-016 -7.90279 -9.16319 15.1751 -18.7115 -26.9358 -8.56019 0.0483058 -0.869394 6.20158 
-54.6826 87.0807 -12.3238 0.699853 -0.348598 -6.84523 -5.97891 -15.7948 -0.530605 0.0701039 20.0385 -0.178417 1.7009 8.51614 -3.51836 -1.05358e-015 -5 1.59635e-015 -0.371541 -5.16912 -2.08371 -0.877675 58.6513 0.769224 -2.39681 10.8199 4.07122 -6.56007e-016 -5 1.59635e-015 -0.730624 5.34282 3.63406 2.03222 -2.64389 -6.94969 -4.96962e-017 0 -3.97569e-016 7.7833 -4.28732 -16.1264 11.7534 -18.3332 4.56527 -0.181742 -1.69614 -12.1614 -4.96962e-017 0 -3.97569e-016 -7.14119 -8.33711 16.061 -18.6237 -26.8384 -8.50531 0.0504015 -0.888983 6.34163 
-54.1948 86.9707 -9.46792 1.88818 -0.821894 -6.18164 -7.79538 -13.6905 0.16765 0.070568 20.1161 -0.196609 1.62557 6.2328 -3.80851 2.58438e-016 -5 -1.59635e-015 -2.74497 -9.50242 -3.62066 -1.35 65.6069 1.27305 -0.664266 5.79036 -2.92474 -6.95656e-017 -5 -7.98176e-016 -2.28521 6.09901 2.67371 2.24493 -3.72675 -6.74089 -4.96962e-017 -7.95139e-016 3.97569e-016 8.70591 -5.34275 -17.7321 12.6027 -19.4794 5.01046 -0.175953 -1.66886 -11.9635 -4.96962e-017 -7.95139e-016 3.97569e-016 -6.63885 -8.13971 16.8694 -18.5453 -26.7511 -8.45637 0.0781761 -1.11047 7.93073 
-53.8593 86.9546 -6.58618 2.17323 -0.955134 -5.40515 -8.54134 -12.015 0.370032 0.0737918 20.8748 -0.215766 1.55759 4.04661 -4.35326 -2.12698e-015 -5 -1.59635e-015 -3.9189 -14.1361 -4.70949 -1.65336 68.6427 1.55565 0.132026 3.69188 -8.29672 1.39131e-016 -5 1.59635e-015 -2.59322 6.57282 2.20626 2.12006 -4.01538 -7.16993 0 0 -0 9.33283 -6.47243 -18.871 13.197 -20.2656 5.32962 -0.133795 -1.45508 -10.4132 0 0 -0 -6.20093 -8.36322 15.0899 -17.8647 -25.9844 -8.03512 0.113017 -1.3364 9.55818 
-53.5322 86.5891 -3.90945 2.49877 -0.815456 -4.24553 -9.42094 -11.6807 -0.102775 0.0895757 23.2467 -0.259683 1.37053 1.09548 -4.33651 -1.39131e-016 -5 -1.59635e-015 -4.90305 -18.4448 -5.28813 -1.66387 68.7657 1.56216 -0.121654 0.864069 -10.0638 1.72941e-015 -5 1.59635e-015 -2.82014 6.7394 1.13189 2.02473 -4.22073 -6.99493 0 7.95139e-016 -0 9.73694 -7.54789 -18.2574 13.7621 -21.0007 5.63865 -0.123116 -1.39602 -9.98563 0 7.95139e-016 -0 -5.75747 -7.85579 13.634 -17.5774 -25.6558 -7.85926 0.0864145 -1.16819 8.34517 
-53.236 86.1478 -0.992515 2.58921 -0.817499 -3.35244 -10.0381 -10.8407 -0.68872 0.110752 25.9198 -0.306694 1.20613 -1.45822 -4.3336 -5.36701e-016 -5 -1.59635e-015 -5.44557 -21.9901 -4.82471 -1.37147 65.9472 1.31561 -0.771445 -1.86083 -9.0641 -1.45115e-015 -5 1.59635e-015 -2.71146 6.70049 0.523461 1.84664 -4.10975 -7.30479 0 1.59028e-015 -0 10.0417 -8.08251 -19.3155 14.7505 -22.258 6.19211 -0.0811849 -1.13157 -8.08035 0 1.59028e-015 -0 -5.77454 -7.07677 12.8316 -17.6638 -25.7552 -7.91203 0.0744336 -1.08275 7.73115 
-53.1334 85.8204 1.62374 2.25885 -0.321333 -1.84483 -10.0478 -10.3632 -1.79986 0.127605 27.6743 -0.295367 1.63377 -3.87175 -4.91213 -1.19271e-015 -5 -0 -4.95771 -25.5084 -3.48098 -0.954826 60.1846 0.978158 -1.17895 -3.50119 -7.69602 -0 -5 -0 -2.38095 6.92457 -0.538172 2.36733 -4.62884 -7.15512 -5.51738e-033 7.95139e-016 3.97569e-016 10.7333 -9.42096 -21.187 15.7045 -23.4369 6.74108 -0.0460427 -0.848007 -6.0467 -5.51738e-033 7.95139e-016 3.97569e-016 -5.84157 -7.162 13.3924 -17.8044 -25.9157 -7.99812 0.0548413 -0.927275 6.61601 
-52.9457 85.6264 4.46866 2.26469 0.0290981 -0.5664 -10.235 -8.8794 -2.29876 0.132015 28.0897 -0.307045 1.52275 -5.79867 -5.88299 -1.33184e-015 -5 -1.59635e-015 -4.80236 -27.4468 -1.09711 -0.583022 51.7755 0.696135 -1.25178 -3.38559 -6.04548 5.36701e-016 -5 1.59635e-015 -2.44619 7.0669 -1.06816 2.72612 -5.16219 -7.54408 4.96962e-017 1.59028e-015 -1.98785e-016 11.3649 -10.2864 -23.1357 16.7939 -24.742 7.38513 -0.0410454 -0.79965 -5.70094 4.96962e-017 1.59028e-015 -1.98785e-016 -5.85889 -7.01613 13.4249 -18.4625 -26.6591 -8.40485 0.084233 -1.15311 8.23702 
-52.8568 85.6806 7.30311 2.04319 0.606988 1.51128 -10.0084 -7.00378 -3.38849 0.122211 27.0534 -0.304838 1.38414 -6.78076 -7.17409 2.38542e-015 -5 -0 -4.43371 -28.2999 2.87613 -0.312417 41.1306 0.502426 -1.06976 -0.952852 -2.35125 1.15793e-015 -5 -3.99088e-016 -2.41191 6.8249 -2.01819 3.05762 -5.55744 -7.81505 2.85753e-016 -1.59028e-015 1.98785e-016 12.0286 -10.3384 -25.2465 18.7121 -26.9348 8.56037 -0.0262867 -0.634534 -4.52213 2.85753e-016 -1.59028e-015 1.98785e-016 -5.70938 -6.88553 12.8989 -18.4402 -26.6344 -8.39104 0.077642 -1.10672 7.90378 
-52.8591 85.5568 10.1513 1.44843 0.865694 3.79853 -9.142 -5.32975 -3.97322 0.120519 26.9394 -0.275467 1.42063 -8.28653 -9.31086 -1.98785e-015 -5 -0 -3.69073 -27.8187 9.09237 -0.156214 30.5039 0.393316 -0.945153 0.614784 2.66488 7.554e-016 -5 -1.59635e-015 -1.9764 7.03592 -2.71332 3.65055 -6.10001 -8.22896 4.96962e-017 1.59028e-015 -1.98785e-016 12.4633 -10.9627 -26.7269 20.2484 -28.5961 9.53687 -0.0118495 -0.414911 -2.9558 4.96962e-017 1.59028e-015 -1.98785e-016 -5.50179 -6.7709 12.211 -18.5757 -26.7856 -8.47544 0.0508468 -0.892129 6.36476 
-52.6785 85.2527 12.9344 0.985831 0.793369 5.62004 -8.67573 -3.77747 -4.96871 0.127837 27.8458 -0.247985 1.51225 -10.0854 -9.95806 -5.36701e-016 -5 -1.59635e-015 -3.56972 -27.1619 12.8753 -0.0877191 23.1104 0.307954 -0.885686 1.45832 10.3563 2.18663e-015 -5 -0 -1.45488 7.18299 -2.45675 3.3993 -6.04167 -9.30722 -2.48481e-016 1.59028e-015 -0 12.1938 -10.9349 -27.6676 21.2433 -29.6282 10.1847 -0.0164591 -0.494036 -3.5213 -2.48481e-016 1.59028e-015 -0 -5.62461 -6.26753 11.5799 -18.8161 -27.0523 -8.6259 0.0633255 -0.997425 7.11974 
-52.4095 85.1903 15.5555 0.726323 0.542112 8.8882 -8.27096 -2.25202 -6.56567 0.136213 28.6502 -0.178696 2.00523 -10.7554 -11.3897 2.26611e-015 -5 3.1927e-015 -4.23594 -26.2671 11.9735 -0.075867 21.3354 0.25817 -2.33678 6.43912 16.6086 5.96534e-016 -5 -1.59635e-014 -0.9792 7.76097 -2.9841 3.43311 -5.59591 -9.73428 -1.98785e-016 3.18055e-015 7.95139e-016 11.6814 -11.3035 -28.2607 21.9204 -30.3115 10.6324 -0.0198304 -0.547834 -3.90399 -1.98785e-016 3.18055e-015 7.95139e-016 -5.78596 -6.28699 10.7177 -18.2645 -26.4374 -8.28194 0.0712276 -1.0589 7.56086 
-52.0795 85.0844 17.9752 1.21209 0.670734 12.4932 -8.57774 -1.42654 -8.07089 0.154841 30.2061 -0.119658 2.6503 -11.0059 -12.7082 9.3427e-016 -5 1.59635e-015 -5.30587 -25.9678 11.4678 -0.095155 24.4957 0.210238 -3.33569 8.56466 18.2359 5.16876e-016 -5 -3.1927e-015 -1.65426 7.87969 -3.07251 3.37336 -5.10592 -9.62903 -3.97569e-016 0 1.59028e-015 11.2196 -11.249 -28.9275 22.9395 -31.3108 11.3157 -0.0041567 -0.222521 -1.58575 -3.97569e-016 0 1.59028e-015 -5.62631 -5.87813 9.91803 -17.7742 -25.8816 -7.97969 0.0845351 -1.15495 8.25008 
-51.9138 85.0592 20.4818 1.2816 0.830624 17.0921 -8.12043 -1.45663 -9.11255 0.193362 33.1928 -0.0226827 4.26248 -11.1685 -14.35 -0 -5 -0 -5.44888 -25.3821 11.7906 -0.129995 30.0437 -0.196058 -2.05028 3.17559 19.0443 1.58956e-016 -5 6.38541e-015 -2.00294 7.39683 -3.53708 3.72016 -3.81097 -9.49316 3.97569e-016 0 -1.59028e-015 10.9011 -10.3314 -29.8979 23.5091 -31.8542 11.7025 -0.00190419 -0.115929 -0.826655 3.97569e-016 0 -1.59028e-015 -5.25575 -4.804 9.91614 -17.7268 -25.8274 -7.95066 0.0672121 -1.02825 7.34052 
-51.7565 85.1133 23.1708 0.674725 0.750705 21.8675 -6.79714 -2.46013 -9.4883 0.266736 38.0847 -0.03241 6.18718 -11.1284 -15.4024 7.25573e-016 -5 -7.98176e-016 -4.9529 -21.3445 11.5726 -0.11191 27.2528 0.288965 -0.313851 0.94153 11.554 -8.74616e-016 -5 -3.1927e-015 -1.4181 6.74392 -3.24698 1.72462 -4.31671 -9.7141 -0 -7.95139e-016 -0 10.4063 -9.5701 -31.3989 23.5806 -31.9216 11.7513 -0.00514576 -0.200028 -1.4249 -0 -7.95139e-016 -0 -5.14422 -3.3176 9.78739 -17.8331 -25.9487 -8.0159 0.0579875 -0.954197 6.80843 
-51.7275 85.4638 25.76 -0.868268 -0.0272337 26.7591 -4.01474 -4.88381 -8.92724 0.402026 44.9449 -0.284331 9.76231 -9.87136 -16.4761 5.36701e-016 -5 1.59635e-015 -2.9437 -17.9819 11.1256 -0.103554 26.9069 0.0885552 -0.48282 -0.933376 8.36181 2.38542e-015 -5 -0 0.847769 6.99086 -2.7049 0.720259 -3.40714 -11.0501 -7.95139e-016 2.38542e-015 -3.18055e-015 9.71692 -9.26358 -32.0889 23.0527 -31.4197 11.3924 -0.00242958 -0.146953 -1.04795 -7.95139e-016 2.38542e-015 -3.18055e-015 -5.50636 -2.65299 9.67213 -17.813 -25.9257 -8.00356 0.0649595 -1.01057 7.2132 
-51.5029 86.1208 28.1534 -2.28866 -0.744545 32.0175 -1.48582 -9.00751 -8.01928 0.603257 52.3154 -0.791169 10.0322 -5.93108 -15.8842 1.15793e-015 -5 -3.99088e-016 -1.51491 -14.6907 7.33223 -0.0980403 25.4687 0.220606 -0.576851 -0.760977 5.83419 1.0734e-015 -5 3.1927e-015 3.10594 7.08819 -2.27789 -0.434865 -3.17719 -9.58459 -0 0 3.18055e-015 8.34087 -9.63225 -31.0646 21.5281 -29.9178 10.3725 -0.0115595 -0.408273 -2.9087 -0 0 3.18055e-015 -6.60346 -2.55775 10.59 -17.122 -25.128 -7.58273 0.0646546 -1.00824 7.19635 
-51.2062 86.669 30.2486 -2.80315 -0.885365 37.9876 -0.0449831 -14.1511 -6.71922 0.803489 57.4155 -1.04025 3.17186 -1.15276 -9.78191 2.90229e-015 -5 -3.1927e-015 -1.21059 -11.9637 3.23664 -0.0932835 24.455 0.28519 -0.658156 -1.11885 3.54341 -0 -5 -0 3.73173 7.32974 -1.47491 -0.771067 -3.55681 -9.21423 -7.95139e-016 -1.59028e-015 3.18055e-015 7.29959 -10.7846 -28.8794 19.4369 -27.7298 9.01753 -0.0254957 -0.62419 -4.44857 -7.95139e-016 -1.59028e-015 3.18055e-015 -7.6322 -3.16558 11.8049 -16.0778 -23.8902 -6.96013 0.0755049 -1.09147 7.79315 
-50.9789 86.6646 32.5687 -2.89853 -1.58271 43.4995 1.56862 -17.5387 -4.33379 0.915645 59.5636 -1.21624 0.882147 -2.38883 -1.89066 3.45882e-015 -5 3.1927e-015 0.0792764 -8.8573 2.69017 -0.0784607 23.3829 0.143023 -0.736369 -2.65156 -1.07594 -1.11305e-015 -5 -1.27708e-014 3.83558 8.46922 -0.512707 -0.206987 -3.60289 -9.07585 7.95139e-016 -2.38542e-015 -3.18055e-015 7.5606 -11.2735 -27.2175 18.3912 -26.578 8.36051 -0.036105 -0.74794 -5.33227 7.95139e-016 -2.38542e-015 -3.18055e-015 -8.29172 -4.03777 13.8688 -16.0389 -23.843 -6.93707 0.0625842 -0.991645 7.07737 
-50.502 86.7353 34.8495 -3.37837 -1.74873 49.8301 2.58115 -21.4198 -2.0986 0.83914 58.0572 -1.11771 0.866028 -4.78173 0.758771 -2.90229e-015 -5 3.1927e-015 1.58704 -6.30992 1.06814 -0.0749248 23.136 0.0379536 -1.02707 -4.12681 -6.12238 -2.78262e-016 -5 -3.1927e-015 3.93759 8.00025 0.534591 0.309394 -2.93941 -9.69432 8.82781e-032 7.95139e-016 -6.36111e-015 8.12338 -10.7342 -27.1285 17.7501 -25.8522 7.96471 -0.0432961 -0.820914 -5.85445 8.82781e-032 7.95139e-016 -6.36111e-015 -8.52538 -3.13006 13.6224 -16.4473 -24.3322 -7.17844 0.119658 -1.37545 9.83918 
